<svg width="48" height="48" viewBox="0 0 48 48" fill="none" xmlns="http://www.w3.org/2000/svg">
  <!-- Book -->
  <path d="M12 8C12 6.89543 12.8954 6 14 6H34C35.1046 6 36 6.89543 36 8V40C36 41.1046 35.1046 42 34 42H14C12.8954 42 12 41.1046 12 40V8Z" fill="#10b981" stroke="#10b981" stroke-width="2"/>
  <path d="M12 14H36" stroke="white" stroke-width="1.5"/>
  <path d="M12 20H36" stroke="white" stroke-width="1.5"/>
  <path d="M12 26H36" stroke="white" stroke-width="1.5"/>
  
  <!-- Location Pin -->
  <circle cx="34" cy="14" r="8" fill="#10b981"/>
  <path d="M34 8C30.6863 8 28 10.6863 28 14C28 16.5 34 24 34 24C34 24 40 16.5 40 14C40 10.6863 37.3137 8 34 8Z" fill="#059669" stroke="white" stroke-width="2"/>
  <circle cx="34" cy="14" r="2.5" fill="white"/>
</svg>
